<?xml version="1.0" encoding="UTF-8"?>
<svg width="32px" height="28px" viewBox="0 0 32 28" version="1.1" xmlns="http://www.w3.org/2000/svg" xmlns:xlink="http://www.w3.org/1999/xlink">
    <!-- Generator: Sketch 43 (38999) - http://www.bohemiancoding.com/sketch -->
    <title>check-mark</title>
    <desc>Created with Sketch.</desc>
    <defs></defs>
    <g id="Page-1" stroke="none" stroke-width="1" fill="none" fill-rule="evenodd">
        <g id="check-mark" fill-rule="nonzero" fill="#FFFFFF">
            <path d="M16.7306219,25.6920064 C15.8903946,26.8324175 14.5819381,27.5333251 13.1671964,27.6029849 C11.7524547,27.6733629 10.3822378,27.1031574 9.43428909,26.0503598 L0.939375582,16.6232967 C-0.410733253,15.1259685 -0.290803372,12.8178569 1.20652478,11.4677481 C2.70528921,10.1176392 5.01196452,10.2382873 6.36207335,11.7363336 L12.3722121,18.4064457 C12.4612618,18.5055494 12.5905276,18.558692 12.723384,18.5522287 C12.8569586,18.5457655 12.9790429,18.4789782 13.0587568,18.372693 L25.4122526,1.61769873 C26.6079607,-0.0053044425 28.8930917,-0.350731224 30.5168131,0.845695009 C32.1390981,2.04212124 32.4838067,4.32725226 31.2873805,5.94953729 L16.7306219,25.6920064 Z" id="Shape"></path>
        </g>
    </g>
</svg>