<?xml version="1.0" encoding="UTF-8"?>
<svg width="32px" height="32px" viewBox="0 0 32 32" version="1.1" xmlns="http://www.w3.org/2000/svg" xmlns:xlink="http://www.w3.org/1999/xlink">
    <!-- Generator: Sketch 43 (38999) - http://www.bohemiancoding.com/sketch -->
    <title>Shape</title>
    <desc>Created with Sketch.</desc>
    <defs></defs>
    <g id="Page-1" stroke="none" stroke-width="1" fill="none" fill-rule="evenodd">
        <g id="Artboard" transform="translate(-29.000000, -23.000000)" fill-rule="nonzero" fill="#FFFFFF">
            <path d="M60.7161863,53.368071 L52.9396896,45.5915743 C55.0257206,43.1933481 56.2886918,40.0643016 56.2886918,36.6443459 C56.2886918,29.1161863 50.1654102,23 42.6443459,23 C35.1161863,23 29,29.1232816 29,36.6443459 C29,44.1654102 35.1232816,50.2886918 42.6443459,50.2886918 C46.0643016,50.2886918 49.1933481,49.0257206 51.5915743,46.9396896 L59.368071,54.7161863 C59.5525499,54.9006652 59.8008869,55 60.0421286,55 C60.2833703,55 60.5317073,54.9077605 60.7161863,54.7161863 C61.0851441,54.3472284 61.0851441,53.7370288 60.7161863,53.368071 Z M30.9086475,36.6443459 C30.9086475,30.1733925 36.1733925,24.9157428 42.6372506,24.9157428 C49.108204,24.9157428 54.3658537,30.1804878 54.3658537,36.6443459 C54.3658537,43.108204 49.108204,48.3800443 42.6372506,48.3800443 C36.1733925,48.3800443 30.9086475,43.1152993 30.9086475,36.6443459 Z" id="Shape"></path>
        </g>
    </g>
</svg>